<svg width="16" height="20" viewBox="0 0 16 20" fill="none" xmlns="http://www.w3.org/2000/svg">
<path id="Mask" fill-rule="evenodd" clip-rule="evenodd" d="M15 8H14V6C14 2.691 11.309 0 8 0C4.691 0 2 2.691 2 6V8H1C0.447 8 0 8.447 0 9V19C0 19.553 0.447 20 1 20H15C15.553 20 16 19.553 16 19V9C16 8.447 15.553 8 15 8ZM2 18H14V10H2V18ZM4 6C4 3.794 5.794 2 8 2C10.206 2 12 3.794 12 6V8H4V6ZM8 16C8.553 16 9 15.553 9 15V13C9 12.447 8.553 12 8 12C7.447 12 7 12.447 7 13V15C7 15.553 7.447 16 8 16Z" fill="#919EAB"/>
</svg>
